<svg aria-hidden="true" style="position: absolute; width: 0; height: 0; overflow: hidden;" version="1.1" xmlns="http://www.w3.org/2000/svg" xmlns:xlink="http://www.w3.org/1999/xlink">
<defs>
<symbol id="icon-steam-icon" viewBox="0 0 32 32">
<path fill="#ffb548" style="fill: var(--color1, #ffb548)" d="M16.283 31.183c-6.95 0-12.835-4.541-14.827-10.806 0.767 0.431 3.596 1.603 3.751 1.652l2.079 0.686c0.935 2.763 3.949 4.243 6.723 3.309 1.81-0.606 3.149-2.132 3.514-3.995l5.979-4.248c3.519-0.333 6.098-3.434 5.769-6.931-0.31-3.235-3.024-5.719-6.298-5.754-3.504 0.005-6.353 2.807-6.398 6.285l-3.589 4.358c-1.2-0.174-2.419 0.084-3.439 0.725l-3.949-1.779c-0.165-0.075-3.253-1.197-3.403-1.103-0.055 0.035-0.151 0.062-0.252 0.091-0.184 0.052-0.385 0.109-0.385 0.228l0.413 6.475c-0.265-0.077-0.446-0.123-0.559-0.143-0.44-1.434-0.677-2.956-0.677-4.533 0-8.551 6.961-15.484 15.549-15.484s15.549 6.932 15.549 15.484c0 8.552-6.961 15.484-15.549 15.484zM26.172 11.455c0 1.756-1.432 3.18-3.199 3.18s-3.199-1.424-3.199-3.18c0-1.756 1.432-3.18 3.199-3.18s3.199 1.424 3.199 3.18zM25.108 11.455c0 1.172-0.956 2.122-2.135 2.122s-2.134-0.95-2.134-2.122c0-1.172 0.956-2.122 2.134-2.122s2.135 0.95 2.135 2.122zM10.922 23.858c0.43 0.209 0.905 0.318 1.385 0.318 0.365 0 0.72-0.060 1.070-0.174 0.805-0.278 1.46-0.86 1.829-1.62 0.77-1.585 0.1-3.483-1.49-4.248-0.27-0.129-0.585-0.020-0.715 0.243-0.13 0.268-0.020 0.581 0.245 0.711 0.035 0.015 0.070 0.030 0.105 0.050 1.050 0.537 1.455 1.814 0.915 2.857s-1.829 1.446-2.874 0.909c-0.27-0.129-0.585-0.020-0.715 0.243-0.13 0.268-0.020 0.581 0.245 0.711z"></path>
</symbol>
<symbol id="icon-xbox-icon" viewBox="0 0 32 32">
<path fill="#ffb548" style="fill: var(--color1, #ffb548)" d="M10.892 2.951c1.635 0.641 3.216 1.488 4.706 2.523 0.17 0.115 0.363 0.175 0.557 0.175s0.388-0.061 0.557-0.175c1.49-1.034 3.071-1.887 4.706-2.529 0.369-0.145 0.618-0.508 0.612-0.907 0-0.399-0.248-0.756-0.624-0.895-3.271-1.24-7.232-1.24-10.496 0-0.37 0.139-0.624 0.502-0.624 0.895s0.23 0.768 0.606 0.913z"></path>
<path fill="#ffb548" style="fill: var(--color1, #ffb548)" d="M24.938 2.956c-0.309-0.212-0.703-0.23-1.036-0.042-1.811 1.041-3.561 2.232-5.215 3.545-0.218 0.175-0.351 0.436-0.363 0.714s0.097 0.551 0.297 0.744c3.428 3.261 8.177 13.261 9.267 17.858-2.362-3.993-7.632-13.388-11.078-16.6-0.37-0.345-0.951-0.345-1.32 0-3.452 3.212-8.704 12.613-11.066 16.612 1.090-4.598 5.827-14.61 9.255-17.87 0.206-0.194 0.315-0.466 0.303-0.744s-0.145-0.538-0.363-0.714c-1.654-1.313-3.41-2.505-5.215-3.545-0.321-0.188-0.727-0.169-1.036 0.042-4.209 2.898-6.723 7.659-6.723 12.74 0 3.714 1.339 7.296 3.779 10.091 2.919 3.424 7.189 5.396 11.726 5.396s8.813-1.966 11.738-5.402c2.429-2.783 3.767-6.364 3.767-10.085 0-5.082-2.514-9.843-6.717-12.74z"></path>
</symbol>
<symbol id="icon-twitch" viewBox="0 0 32 32">
<path d="M31.936 22.6v-20.712h-27.234l-3.404 3.675v19.376h8.511v6.013h3.745l4.085-4.343h10.213l4.085-4.009zM11.851 22.266h-5.447c-0.374 0-0.681-0.301-0.681-0.668v-16.369c0-0.367 0.306-0.668 0.681-0.668h21.787c0.374 0 0.681 0.301 0.681 0.668v12.694c0 0.184-0.068 0.351-0.196 0.476l-3.745 3.675c-0.128 0.125-0.306 0.192-0.485 0.192h-6.255l-5.277 3.558c-0.111 0.075-0.247 0.117-0.383 0.117-0.111 0-0.213-0.025-0.315-0.075-0.23-0.117-0.366-0.342-0.366-0.593v-3.007z"></path>
<path d="M22.064 16.42v-6.681h-2.724v6.681h2.724zM15.255 16.42v-6.681h-2.723v6.681h2.723z"></path>
</symbol>
<symbol id="icon-youtube" viewBox="0 0 32 32">
<path d="M25.366 4.534h-17.994c-3.524 0-6.387 2.914-6.387 6.499v9.148c0 3.593 2.863 6.499 6.387 6.499h17.988c3.531 0 6.387-2.914 6.387-6.499v-9.148c0.007-3.586-2.857-6.499-6.381-6.499zM21.041 16.059l-8.416 4.082c-0.227 0.109-0.481-0.054-0.481-0.313v-8.421c0-0.258 0.267-0.421 0.487-0.306l8.416 4.34c0.254 0.129 0.247 0.496-0.007 0.618z"></path>
</symbol>
<symbol id="icon-twitter" viewBox="0 0 32 32">
<path d="M30.856 7.17c-1.124 0.468-2.333 0.781-3.6 0.924 1.295-0.727 2.288-1.879 2.756-3.249-1.213 0.672-2.554 1.161-3.983 1.425-1.142-1.143-2.772-1.856-4.575-1.856-3.462 0-6.271 2.631-6.271 5.875 0 0.461 0.055 0.911 0.163 1.34-5.21-0.246-9.83-2.585-12.922-6.138-0.54 0.868-0.848 1.876-0.848 2.954 0 2.036 1.107 3.837 2.788 4.89-1.027-0.032-1.993-0.295-2.839-0.736 0 0.026 0 0.048 0 0.076 0 2.847 2.16 5.22 5.028 5.76-0.525 0.134-1.081 0.204-1.651 0.204-0.404 0-0.797-0.035-1.18-0.102 0.797 2.332 3.113 4.032 5.856 4.080-2.145 1.575-4.848 2.513-7.786 2.513-0.506 0-1.005-0.028-1.495-0.081 2.774 1.665 6.070 2.64 9.61 2.64 11.532 0 17.837-8.954 17.837-16.717 0-0.256-0.007-0.508-0.019-0.761 1.225-0.829 2.288-1.863 3.129-3.040z"></path>
</symbol>
<symbol id="icon-facebook" viewBox="0 0 32 32">
<path d="M18.646 30.676h-6.546v-15.19h-3.272v-5.237h3.272v-3.142c0-4.27 1.848-6.813 7.093-6.813h4.368v5.237h-2.728c-2.045 0-2.179 0.733-2.179 2.099l-0.008 2.619h4.947l-0.579 5.237h-4.368v15.19z"></path>
</symbol>
<symbol id="icon-logo" viewBox="0 0 32 32">
<path d="M0.386 0.302h31.429v31.429h-31.429v-31.429z"></path>
</symbol>
</defs>
</svg>
